<?xml version="1.0" encoding="UTF-8" standalone="no"?>
<svg
   xmlns:dc="http://purl.org/dc/elements/1.1/"
   xmlns:cc="http://creativecommons.org/ns#"
   xmlns:rdf="http://www.w3.org/1999/02/22-rdf-syntax-ns#"
   xmlns:svg="http://www.w3.org/2000/svg"
   xmlns="http://www.w3.org/2000/svg"
   xmlns:sodipodi="http://sodipodi.sourceforge.net/DTD/sodipodi-0.dtd"
   xmlns:inkscape="http://www.inkscape.org/namespaces/inkscape"
   version="1.1"
   id="svg2"
   viewBox="0 0 1052.3622 744.09448"
   height="210mm"
   width="297mm"
   inkscape:version="0.91 r13725"
   sodipodi:docname="map.svg">
  <sodipodi:namedview
     pagecolor="#ffffff"
     bordercolor="#666666"
     borderopacity="1"
     objecttolerance="10"
     gridtolerance="10"
     guidetolerance="10"
     inkscape:pageopacity="0"
     inkscape:pageshadow="2"
     inkscape:window-width="1456"
     inkscape:window-height="972"
     id="namedview66"
     showgrid="false"
     inkscape:zoom="0.54734005"
     inkscape:cx="296.21492"
     inkscape:cy="315.06943"
     inkscape:window-x="2172"
     inkscape:window-y="109"
     inkscape:window-maximized="0"
     inkscape:current-layer="svg2" />
  <defs
     id="defs4" />
  <metadata
     id="metadata7">
    <rdf:RDF>
      <cc:Work
         rdf:about="">
        <dc:format>image/svg+xml</dc:format>
        <dc:type
           rdf:resource="http://purl.org/dc/dcmitype/StillImage" />
        <dc:title />
      </cc:Work>
    </rdf:RDF>
  </metadata>
  <path
     id="path4917"
     d="m 416.42177,293.34965 29.05114,-12.22686 8.25855,19.73638 -29.27309,12.21971 z m 0,0"
     style="fill:#bababa;fill-opacity:1;fill-rule:nonzero;stroke:none"
     inkscape:connector-curvature="0" />
  <path
     style="fill:#d9cfc7;fill-opacity:1;fill-rule:nonzero;stroke:#b8a89c;stroke-width:0.34321019;stroke-linecap:butt;stroke-linejoin:miter;stroke-miterlimit:4;stroke-opacity:1"
     d="m 756.04948,230.9215 -18.11271,1.10257 -17.01847,5.48778 -11.79911,7.14879 -10.28422,9.96525 -7.39101,8.35716 -4.20089,9.87802 -4.47399,14.86315 0.64285,15.423 0.64213,9.96382 -4.49889,0.96029 4.47399,11.42962 6.27076,11.60834 2.62744,-1.88405 2.0545,2.62769 8.06828,9.60274 10.69388,8.13692 10.59796,5.03734 17.02469,4.92791 17.45228,-0.21951 7.54697,-1.58374 7.73806,-2.17224 -3.46798,9.64562 9.34374,3.71311 8.07194,-19.98486 3.65248,-2.96589 11.56555,-12.21257 8.35712,-13.81422 5.14028,-16.71146 0.97453,-9.39038 -0.65091,-12.4571 -5.38519,-16.74579 -8.45377,-13.39092 -11.30452,-11.96374 -10.52877,-7.06655 -11.86721,-4.67624 -13.50179,-2.63986 z m -10.70157,26.14976 8.19897,0.093 8.80778,1.46937 7.92513,3.6416 6.98099,5.72374 -7.32914,8.15482 6.02622,7.63428 3.21392,9.63491 0.2753,8.59314 -1.68366,7.26104 -3.41416,5.43558 -3.25052,4.11493 -4.38101,3.11393 -4.29241,2.85507 -7.53928,1.5981 -7.04139,-0.0322 -6.83419,-1.20338 -4.81922,11.24726 -8.03313,-2.80788 -7.23176,-5.6308 -4.99823,-6.95214 4.19723,-4.29154 9.90092,0.66497 6.7855,-1.71605 7.49205,-7.08946 2.67063,-8.11192 0.30166,-12.61868 1.92564,-0.81155 -5.12527,-11.62768 2.88296,-0.35965 -3.24247,-7.74511 -3.13337,1.80686 -4.70829,-9.59559 9.4726,-2.44895 z"
     id="Diamond_Ring"
     inkscape:connector-curvature="0"
     inkscape:label="#path29041">
    <desc
       id="desc4314">Electrons go here</desc>
  </path>
  <path
     id="path5043"
     d="m 418.37211,537.09324 5.7879,-41.2281 24.19632,3.39638 2.62395,-14.00016 -1.08683,-3.58403 -7.9579,2.49541 -9.04519,-23.70296 24.93445,-9.84405 4.00412,-11.53684 5.60943,12.25901 0.87587,-0.2252 11.67464,34.37104 -9.20398,3.82537 -1.30695,12.90968 8.01556,1.12262 -0.75094,5.36623 -5.03879,35.8619 -11.39046,-1.60165 -0.28967,6.378 -23.85493,-2.18794 0.66674,-7.48275 z m 0,0"
     style="fill:#d9cfc7;fill-opacity:1;fill-rule:nonzero;stroke:#b8a89c;stroke-width:0.34321019;stroke-linecap:butt;stroke-linejoin:miter;stroke-miterlimit:4;stroke-opacity:1"
     inkscape:connector-curvature="0" />
  <path
     id="path5045"
     d="m 350.60046,473.60832 56.19357,-25.65674 -2.97265,-6.51386 7.5346,-3.43745 -11.44217,1.16009 -0.65621,-7.27532 -9.04336,1.09932 -0.55234,-14.88136 7.49891,-0.99746 0.76513,5.10171 21.06624,-2.0146 1.10285,8.38183 -9.48267,0.99389 3.2033,7.3075 5.4035,11.84075 5.28955,-2.40961 7.21108,15.78945 -16.16703,7.38259 1.79842,3.93621 -20.65851,9.43292 2.38783,5.23217 -27.81787,12.70055 -2.65096,-5.8131 -6.84086,3.12285 z m 0,0"
     style="fill:#d9cfc7;fill-opacity:1;fill-rule:nonzero;stroke:#b8a89c;stroke-width:0.34321019;stroke-linecap:butt;stroke-linejoin:miter;stroke-miterlimit:4;stroke-opacity:1"
     inkscape:connector-curvature="0" />
  <path
     id="path5047"
     d="m 511.3624,429.55048 10.32467,-4.12923 1.91283,4.79062 20.63013,-8.25489 -7.23624,-18.65851 8.27137,-3.30873 1.74808,4.36696 0.70061,1.75362 5.12847,-2.05569 0.75598,1.90372 25.31015,-10.12292 3.24631,8.1155 4.21142,-1.52298 -2.62076,-6.68189 2.04325,-0.58451 0.44526,1.119 1.3495,-0.54163 -0.38806,-0.96886 4.2494,-1.69994 3.95744,9.89768 1.5536,-0.62208 1.03467,-0.41291 0.83651,2.08247 -0.86122,0.34861 -0.88686,0.3557 2.33978,5.84711 -1.58517,0.62739 3.78034,9.45439 4.59581,-1.8376 0.98159,2.44892 -18.58003,7.43622 -0.83652,-2.08964 -11.61743,4.64409 -2.13935,-5.34122 -15.20146,6.07949 -7.64901,2.726 -8.98799,3.59478 0.87953,2.1933 4.36335,-1.74108 4.4027,11.0024 -2.80106,1.12079 0.63654,1.58737 -25.10788,10.04782 z m 7.77027,4.43849 5.30192,13.2869 7.37169,-2.93697 0.45945,1.14944 1.07996,-0.43085 -3.53598,-8.86983 -5.85425,2.33635 -1.69454,-4.25082 -0.52717,-1.32099 z m 0,0"
     style="fill:#d9cfc7;fill-opacity:1;fill-rule:nonzero;stroke:#b8a89c;stroke-width:0.34321019;stroke-linecap:butt;stroke-linejoin:miter;stroke-miterlimit:4;stroke-opacity:1"
     inkscape:connector-curvature="0" />
  <path
     id="path5049"
     d="m 430.67368,361.02105 10.23911,-4.22578 3.35339,8.1298 9.51882,-3.92189 0.77931,1.88944 8.84842,-3.65197 -1.58014,-3.8343 -1.59066,0.65603 -0.63471,-1.55159 -1.7037,0.70429 -5.82725,2.40247 -2.29905,-5.56286 5.75449,-2.37388 -0.31667,-0.76507 12.32353,-5.08737 -5.50738,-13.35124 9.02689,-3.07459 2.78,6.73371 1.10102,-0.45582 4.06498,9.84584 16.13408,-6.65685 0.90105,2.18618 14.5759,-6.01154 -0.74911,-1.81615 6.27983,-2.59017 1.95355,4.73344 2.92644,-1.21018 3.96477,9.60989 -2.97266,1.2209 1.48175,3.59834 -9.49365,3.92011 -5.29642,2.18081 -0.99577,-2.40962 -0.72943,-1.76252 -6.23682,2.57049 1.20673,2.93338 -4.48873,1.84654 -1.11704,-2.70099 -27.92358,11.52614 -32.97106,13.60328 -2.78686,-6.76231 6.81935,-2.80825 -2.4345,-5.90608 -4.81226,1.9824 z m 0,0"
     style="fill:#d9cfc7;fill-opacity:1;fill-rule:nonzero;stroke:#b8a89c;stroke-width:0.34321019;stroke-linecap:butt;stroke-linejoin:miter;stroke-miterlimit:4;stroke-opacity:1"
     inkscape:connector-curvature="0" />
  <path
     id="path5051"
     d="m 242.98622,258.91066 12.33223,-31.55746 39.06876,15.26391 -8.04027,20.58725 6.1366,2.3989 -4.28281,10.97378 z m 0,0"
     style="fill:#d9cfc7;fill-opacity:1;fill-rule:nonzero;stroke:#b8a89c;stroke-width:0.34321019;stroke-linecap:butt;stroke-linejoin:miter;stroke-miterlimit:4;stroke-opacity:1"
     inkscape:connector-curvature="0" />
  <path
     id="path5053"
     d="m 527.03703,472.25873 18.60886,-7.40583 -0.51665,-1.29958 4.96923,-1.97525 1.88766,4.73704 5.21084,-2.0718 -2.65278,-6.67649 6.38142,-2.53477 9.35774,23.52065 0.8475,2.12896 1.26713,-0.50233 3.74877,9.42222 11.91763,-4.73882 4.4027,-1.75714 0.57568,1.45507 0.54502,1.36388 1.74122,4.37771 -7.78859,3.09964 0.59353,1.48725 -2.99234,1.19048 -0.67406,-1.69102 -17.33715,6.89817 -2.96579,-7.45765 3.57533,-1.4229 -3.74145,-9.41503 -1.32479,0.52731 -1.13854,-2.86188 1.9897,-0.79368 -2.82988,-7.1234 -7.26828,2.89409 0.47409,1.18156 -2.76215,1.10289 10.26793,25.80693 -18.27068,7.26818 -1.44057,-3.6198 3.15296,-1.26023 -3.01705,-7.5917 -3.75243,1.49439 z m 0,0"
     style="fill:#d9cfc7;fill-opacity:1;fill-rule:nonzero;stroke:#b8a89c;stroke-width:0.34321019;stroke-linecap:butt;stroke-linejoin:miter;stroke-miterlimit:4;stroke-opacity:1"
     inkscape:connector-curvature="0" />
  <path
     id="path5059"
     d="m 476.87481,435.70685 1.93982,-0.74724 1.72292,-0.71502 0.68642,1.64814 1.76959,-0.72573 -1.11887,-2.70637 1.99154,-0.82586 12.27136,-4.47244 2.03226,5.14637 2.91226,-1.14939 3.25317,8.24597 -2.7832,1.0904 -0.64707,-1.65171 -8.6823,3.43032 -1.69454,-4.29191 -3.35706,1.32456 0.73127,1.8537 1.93937,-0.76508 1.35865,3.4482 1.81993,-0.72216 0.99348,2.52045 8.28555,-3.26764 1.21359,3.08171 5.22869,-2.05748 4.24025,10.76111 -10.2089,4.02553 1.6982,4.30267 -0.9651,0.38073 1.44239,3.65913 12.01602,-4.74061 3.79865,9.63492 -21.95492,8.65357 -4.20456,1.66241 -8.16886,-20.71237 -2.40613,0.95097 -5.21405,-13.22073 2.77588,-1.09219 z m 0,0"
     style="fill:#d9cfc7;fill-opacity:1;fill-rule:nonzero;stroke:#b8a89c;stroke-width:0.34321019;stroke-linecap:butt;stroke-linejoin:miter;stroke-miterlimit:4;stroke-opacity:1"
     inkscape:connector-curvature="0" />
  <path
     id="path5061"
     d="m 561.20796,246.79105 22.4377,-8.77331 -6.56584,-16.79406 6.02586,-2.35242 1.81078,4.63512 3.68058,-1.43183 -1.05663,-2.69742 3.1676,-1.24234 -4.27411,-10.92732 21.61904,-8.44976 10.36586,26.52014 -6.53883,2.55262 2.08947,5.35015 -50.38372,19.6899 z m 26.7562,-18.25985 2.39515,5.95612 14.8459,-5.96327 -2.39881,-5.9615 z m 0,0"
     style="fill:#d9cfc7;fill-opacity:1;fill-rule:nonzero;stroke:#b8a89c;stroke-width:0.34321019;stroke-linecap:butt;stroke-linejoin:miter;stroke-miterlimit:4;stroke-opacity:1"
     inkscape:connector-curvature="0" />
  <path
     id="path5063"
     d="m 632.27581,309.46981 7.60964,-26.35747 6.28853,-14.66509 8.93078,-12.67554 4.9587,3.52149 -1.8753,2.09858 10.14438,5.51103 -11.79589,17.089 6.50313,2.43108 -5.51102,24.14627 -4.74088,-1.09935 -0.55236,2.20584 -13.8945,-3.20329 0,-2.6438 -1.43555,-0.10725 z m 0,0"
     style="fill:#d9cfc7;fill-opacity:1;fill-rule:nonzero;stroke:#b8a89c;stroke-width:0.34321019;stroke-linecap:butt;stroke-linejoin:miter;stroke-miterlimit:4;stroke-opacity:1"
     inkscape:connector-curvature="0" />
  <path
     id="path5065"
     d="m 364.40758,246.59621 15.5767,-41.22098 7.05732,2.66167 -1.85013,4.89074 14.60794,5.51639 1.84281,-4.88717 7.76707,2.93338 -16.36883,43.32134 -7.97438,-3.02096 2.06842,-5.47885 -14.38966,-5.44131 -1.28178,3.39814 z m 10.16908,-7.64537 14.88892,5.7166 7.28567,-18.95879 -14.8848,-5.72017 z m 0,0"
     style="fill:#d9cfc7;fill-opacity:1;fill-rule:nonzero;stroke:#b8a89c;stroke-width:0.34321019;stroke-linecap:butt;stroke-linejoin:miter;stroke-miterlimit:4;stroke-opacity:1"
     inkscape:connector-curvature="0" />
  <path
     id="path5069"
     d="m 327.06173,367.89777 0.97609,-2.67418 7.8975,2.60267 1.5568,-4.70662 2.88159,0.95097 1.05846,-3.10676 1.08866,-3.47143 3.07974,-9.24344 17.94166,5.92753 -0.56836,1.71784 1.18522,0.39504 -4.9015,14.8224 -6.67109,-2.20406 -1.5266,4.61726 1.15639,0.38074 -2.64363,8.00109 8.66583,2.86187 -1.87851,5.69157 -7.70987,-2.55262 -0.58803,1.76612 -8.91294,-2.94411 -1.71056,5.1553 4.08649,1.35499 -1.64833,4.98369 2.40247,0.79011 -0.97243,2.95124 -2.80471,-0.92598 -0.30889,0.93312 -7.45086,-2.46324 1.01544,-3.09425 -2.51321,-0.82942 4.41002,-13.35124 -3.93639,-1.30852 -0.89372,-1.61237 0.93673,-2.88333 1.60165,-0.75792 4.56195,1.50513 1.33166,-4.03272 -2.60474,-0.86161 0.56149,-1.69102 z m 0,0"
     style="fill:#d9cfc7;fill-opacity:1;fill-rule:nonzero;stroke:#b8a89c;stroke-width:0.34321019;stroke-linecap:butt;stroke-linejoin:miter;stroke-miterlimit:4;stroke-opacity:1"
     inkscape:connector-curvature="0" />
  <path
     id="path5071"
     d="m 295.85294,368.07831 8.09427,-22.24252 6.79602,2.47755 1.54445,-4.24008 11.12229,4.05417 -1.57647,4.32588 9.58288,3.49466 -3.37856,9.27562 -0.97609,2.67418 -3.74465,10.28915 -2.23453,-0.80797 -1.80208,4.95153 -14.942,-5.44132 1.83778,-5.0552 z m 0,0"
     style="fill:#d9cfc7;fill-opacity:1;fill-rule:nonzero;stroke:#b8a89c;stroke-width:0.34321019;stroke-linecap:butt;stroke-linejoin:miter;stroke-miterlimit:4;stroke-opacity:1"
     inkscape:connector-curvature="0" />
  <path
     id="Diamond_House"
     d="m 639.17066,329.9355 25.29918,-10.39283 3.32455,8.09762 0.79397,-0.32713 1.48359,3.61265 1.89496,4.61546 -2.10045,0.8616 3.65542,8.89844 -22.68069,9.32209 -1.55497,-3.78247 -2.53108,1.035 -3.48562,-8.48552 -3.54149,-8.61064 1.22824,-0.50767 z m 0,0"
     style="fill:#d9cfc7;fill-opacity:1;fill-rule:nonzero;stroke:#b8a89c;stroke-width:0.34321019;stroke-linecap:butt;stroke-linejoin:miter;stroke-miterlimit:4;stroke-opacity:1"
     inkscape:connector-curvature="0"
     inkscape:label="#path5075">
    <desc
       id="desc4316">we work here</desc>
  </path>
  <path
     id="path5077"
     d="m 327.62505,503.73928 12.8022,-15.2031 5.93845,5.00158 0.66491,-0.79011 4.75873,4.00768 -0.55417,0.65424 16.6759,14.03948 -12.63609,15.00646 -20.37479,-17.15333 -2.39881,2.84756 -4.71387,-3.96835 2.11829,-2.5205 z m 0,0"
     style="fill:#d9cfc7;fill-opacity:1;fill-rule:nonzero;stroke:#b8a89c;stroke-width:0.34321019;stroke-linecap:butt;stroke-linejoin:miter;stroke-miterlimit:4;stroke-opacity:1"
     inkscape:connector-curvature="0" />
  <path
     id="path5079"
     d="m 525.38551,309.95066 15.29436,-6.1903 2.45967,6.06517 2.49903,-1.01533 1.97506,4.87287 -2.33429,0.94025 3.41792,8.44619 2.70449,-1.10292 1.48359,3.65912 -1.98971,0.81155 4.15102,10.24447 -5.47535,2.22014 1.18659,2.93337 -4.80311,1.94307 1.44606,3.5769 -6.01854,2.43822 -2.8761,-7.10374 -1.00812,0.40578 -2.7617,-6.81237 1.13122,-0.46297 z m 0,0"
     style="fill:#d9cfc7;fill-opacity:1;fill-rule:nonzero;stroke:#b8a89c;stroke-width:0.34321019;stroke-linecap:butt;stroke-linejoin:miter;stroke-miterlimit:4;stroke-opacity:1"
     inkscape:connector-curvature="0" />
  <path
     id="path5081"
     d="m 647.10019,378.49438 1.07081,-0.43438 -0.41687,-1.03677 1.12983,-0.45583 9.12895,-3.677 -5.03697,-12.4932 11.78172,-4.75132 4.62055,11.47251 -1.74809,0.70072 1.21725,3.01739 1.31013,-3.24262 2.20435,-2.20584 -1.31749,-2.55977 3.87555,-1.68388 3.85903,-0.20199 3.87189,1.63382 2.21485,1.61595 1.46572,2.37387 0.50246,2.12182 0.45212,3.69845 -0.55232,2.701 -1.3765,2.39174 -2.48441,2.36672 -4.2796,0.99745 -1.86798,-0.17875 -1.66249,-0.57202 -1.96089,-0.73468 -0.62005,-1.54802 -0.59354,-1.46937 -2.08991,0.84372 -2.59558,1.0493 1.21037,3.0013 -7.29663,2.94051 0.33955,0.86342 -1.14403,0.4594 -1.15319,0.46654 -0.6791,-1.69102 -8.44619,3.39993 -2.64226,-6.44236 0.70794,-0.29851 z m 0,0"
     style="fill:#d9cfc7;fill-opacity:1;fill-rule:nonzero;stroke:#b8a89c;stroke-width:0.34321019;stroke-linecap:butt;stroke-linejoin:miter;stroke-miterlimit:4;stroke-opacity:1"
     inkscape:connector-curvature="0" />
  <path
     id="path5083"
     d="m 540.29913,370.02495 20.06178,-8.43188 -0.17892,-0.43081 36.20318,-15.21565 9.64237,22.93967 -1.90047,0.80083 -3.69843,1.55517 -6.18648,-14.73123 -1.31197,0.55415 -8.3661,3.5179 3.53049,8.38899 -3.75746,1.58019 -4.07917,1.71248 -2.43816,-5.8024 -6.25467,2.63128 -1.11337,-2.63843 -6.68207,2.81182 -0.49697,-1.178 -19.33601,8.13695 -0.97426,-2.30952 -0.87587,0.36645 z m 0,0"
     style="fill:#d9cfc7;fill-opacity:1;fill-rule:nonzero;stroke:#b8a89c;stroke-width:0.34321019;stroke-linecap:butt;stroke-linejoin:miter;stroke-miterlimit:4;stroke-opacity:1"
     inkscape:connector-curvature="0" />
  <path
     id="path5091"
     d="m 318.07786,560.86055 24.32491,-26.82399 12.34458,11.20436 -24.32857,26.81688 z m 0,0"
     style="fill:#d9cfc7;fill-opacity:1;fill-rule:nonzero;stroke:#b8a89c;stroke-width:0.34321019;stroke-linecap:butt;stroke-linejoin:miter;stroke-miterlimit:4;stroke-opacity:1"
     inkscape:connector-curvature="0" />
  <path
     id="path5093"
     d="m 459.41593,401.90778 8.41735,-3.47145 0.32719,0.79725 19.2788,-7.96531 1.27125,3.08889 2.17367,-0.90274 1.04748,2.54369 3.1708,-1.3085 2.0254,4.9015 -1.19208,0.48979 0.79716,1.92339 1.26713,-0.52017 1.17103,2.8297 -29.99519,12.38596 -3.1159,1.28882 z m 0,0"
     style="fill:#d9cfc7;fill-opacity:1;fill-rule:nonzero;stroke:#b8a89c;stroke-width:0.34321019;stroke-linecap:butt;stroke-linejoin:miter;stroke-miterlimit:4;stroke-opacity:1"
     inkscape:connector-curvature="0" />
  <path
     id="path5095"
     d="m 431.94127,333.02976 22.68757,-9.32567 32.06315,-13.23146 3.6934,8.95564 -19.32731,7.97427 -9.02689,3.07459 -0.95275,-2.30237 -3.93456,1.62668 1.07631,2.62591 -20.65164,8.49982 -2.07528,-5.03554 -2.03272,0.83657 z m 0,0"
     style="fill:#d9cfc7;fill-opacity:1;fill-rule:nonzero;stroke:#b8a89c;stroke-width:0.34321019;stroke-linecap:butt;stroke-linejoin:miter;stroke-miterlimit:4;stroke-opacity:1"
     inkscape:connector-curvature="0" />
  <path
     id="path5097"
     d="m 653.67474,186.67743 21.23052,-8.59992 8.68961,21.4703 -21.22914,8.59992 z m 0,0"
     style="fill:#d9cfc7;fill-opacity:1;fill-rule:nonzero;stroke:#b8a89c;stroke-width:0.34321019;stroke-linecap:butt;stroke-linejoin:miter;stroke-miterlimit:4;stroke-opacity:1"
     inkscape:connector-curvature="0" />
  <path
     id="path5101"
     d="m 542.1511,216.05944 2.28806,-5.60935 6.84819,2.80468 7.55062,-3.02454 -1.30694,-3.2605 21.35591,-8.54987 1.30328,3.25693 7.023,-2.81183 1.80391,4.50464 -30.57453,12.24116 9.76364,24.38223 -7.40373,2.96554 -8.52122,-21.28975 2.65782,-1.06717 -2.54342,-6.34939 -0.68505,0.27707 -1.93936,4.63513 -2.91912,-1.18694 -0.56103,1.36748 -1.69455,-0.68642 0.56104,-1.37105 z m 0,0"
     style="fill:#d9cfc7;fill-opacity:1;fill-rule:nonzero;stroke:#b8a89c;stroke-width:0.34321019;stroke-linecap:butt;stroke-linejoin:miter;stroke-miterlimit:4;stroke-opacity:1"
     inkscape:connector-curvature="0" />
  <path
     id="path5103"
     d="m 303.73076,541.05983 23.38817,-24.95242 10.99188,10.30165 -23.39183,24.95421 z m 0,0"
     style="fill:#d9cfc7;fill-opacity:1;fill-rule:nonzero;stroke:#b8a89c;stroke-width:0.34321019;stroke-linecap:butt;stroke-linejoin:miter;stroke-miterlimit:4;stroke-opacity:1"
     inkscape:connector-curvature="0" />
  <path
     id="path5105"
     d="m 466.06002,417.9886 3.1159,-1.28882 1.20672,2.9262 7.1644,-2.95838 0.54502,1.32457 2.98547,-1.22805 -0.45395,-1.09219 18.58323,-7.68114 2.01807,4.88361 1.29596,-0.53445 1.51608,3.66627 -2.00023,0.82224 1.57648,3.81288 -20.75186,8.5695 1.00492,2.42393 -1.99154,0.82586 1.11887,2.70637 -1.76959,0.72573 -0.68642,-1.64814 -1.72292,0.71502 -1.44102,-3.49109 -4.90837,2.02531 z m 0,0"
     style="fill:#d9cfc7;fill-opacity:1;fill-rule:nonzero;stroke:#b8a89c;stroke-width:0.34321019;stroke-linecap:butt;stroke-linejoin:miter;stroke-miterlimit:4;stroke-opacity:1"
     inkscape:connector-curvature="0" />
  <path
     id="path5109"
     d="m 559.69234,310.1455 14.97769,-5.78094 5.90779,15.29251 1.7522,-0.68106 -0.95458,-2.47397 4.56012,-1.76431 3.2065,8.29961 -3.33554,1.28525 -0.81135,-2.08965 -2.50635,0.9617 2.15398,5.58432 -4.49193,1.80185 -10.95939,4.15963 z m 0,0"
     style="fill:#d9cfc7;fill-opacity:1;fill-rule:nonzero;stroke:#b8a89c;stroke-width:0.34321019;stroke-linecap:butt;stroke-linejoin:miter;stroke-miterlimit:4;stroke-opacity:1"
     inkscape:connector-curvature="0" />
  <path
     id="path5115"
     d="m 507.20086,399.43735 24.35007,-9.74213 5.44286,13.60325 -24.34641,9.74218 z m 0,0"
     style="fill:#d9cfc7;fill-opacity:1;fill-rule:nonzero;stroke:#b8a89c;stroke-width:0.34321019;stroke-linecap:butt;stroke-linejoin:miter;stroke-miterlimit:4;stroke-opacity:1"
     inkscape:connector-curvature="0" />
  <path
     id="path5123"
     d="m 531.55093,389.69522 10.15857,-4.06489 -1.68402,-4.20794 4.7514,-1.90374 1.75907,4.39201 2.7832,-1.11008 5.436,13.58902 1.68035,4.19357 -9.42226,3.77353 -1.74808,-4.36696 -8.27137,3.30873 z m 0,0"
     style="fill:#d9cfc7;fill-opacity:1;fill-rule:nonzero;stroke:#b8a89c;stroke-width:0.34321019;stroke-linecap:butt;stroke-linejoin:miter;stroke-miterlimit:4;stroke-opacity:1"
     inkscape:connector-curvature="0" />
  <path
     id="path5125"
     d="m 396.27579,411.15835 11.68882,-1.32457 0.22377,2.75104 14.77223,-1.87155 -1.21039,-8.38183 4.9587,-0.2181 1.32662,11.68883 -3.86134,6.28321 -5.18202,0.10727 -21.06624,2.0146 -0.76513,-5.10171 z m 0,0"
     style="fill:#d9cfc7;fill-opacity:1;fill-rule:nonzero;stroke:#b8a89c;stroke-width:0.34321019;stroke-linecap:butt;stroke-linejoin:miter;stroke-miterlimit:4;stroke-opacity:1"
     inkscape:connector-curvature="0" />
  <path
     id="path5129"
     d="m 698.61923,437.12792 13.00951,-17.31601 7.42202,5.58431 3.98263,2.99059 -13.00952,17.31244 z m 0,0"
     style="fill:#d9cfc7;fill-opacity:1;fill-rule:nonzero;stroke:#b8a89c;stroke-width:0.34321019;stroke-linecap:butt;stroke-linejoin:miter;stroke-miterlimit:4;stroke-opacity:1"
     inkscape:connector-curvature="0" />
  <path
     id="path5131"
     d="m 597.14343,399.86815 6.35305,-2.58478 -5.31975,-13.04917 8.27777,-3.37668 7.23257,17.73256 3.10127,7.61318 -7.50761,3.06208 -1.86433,-4.56003 -7.11635,2.90118 -1.47306,-3.59121 -0.83651,-2.08247 z m 0,0"
     style="fill:#d9cfc7;fill-opacity:1;fill-rule:nonzero;stroke:#b8a89c;stroke-width:0.34321019;stroke-linecap:butt;stroke-linejoin:miter;stroke-miterlimit:4;stroke-opacity:1"
     inkscape:connector-curvature="0" />
  <path
     id="path5141"
     d="m 593.04276,484.56066 2.6775,-1.08861 -0.28601,-0.71324 10.28029,-4.15966 0.43107,1.07434 0.97243,-0.43798 1.17057,-0.42362 -0.33772,-0.82942 15.9913,-6.46379 1.45887,3.61263 1.77328,-0.71859 0.78984,1.95378 -1.2923,0.52735 0.71662,1.76607 -16.22698,6.56927 0.45029,1.10473 -2.19885,0.89555 -0.55232,-1.3657 -10.78779,4.36343 -2.12882,-5.2572 -2.35625,0.95454 z m 0,0"
     style="fill:#d9cfc7;fill-opacity:1;fill-rule:nonzero;stroke:#b8a89c;stroke-width:0.34321019;stroke-linecap:butt;stroke-linejoin:miter;stroke-miterlimit:4;stroke-opacity:1"
     inkscape:connector-curvature="0" />
  <path
     id="path5147"
     d="m 598.25681,260.76256 13.69821,-5.71302 5.07494,12.17681 -1.60531,0.66855 0.8937,2.14685 -10.36219,4.32409 -0.63288,-1.52657 -1.7307,0.72217 z m 0,0"
     style="fill:#d9cfc7;fill-opacity:1;fill-rule:nonzero;stroke:#b8a89c;stroke-width:0.34321019;stroke-linecap:butt;stroke-linejoin:miter;stroke-miterlimit:4;stroke-opacity:1"
     inkscape:connector-curvature="0" />
  <path
     id="path5149"
     d="m 551.16746,434.71474 7.64901,-2.726 1.68356,4.21324 3.0175,7.54349 1.68036,4.20611 0.80082,-0.32001 1.85746,4.62084 -6.93056,2.77964 -6.38142,2.53477 -1.95035,-4.85144 4.98021,-1.9913 -1.36049,-3.39815 -3.23167,-8.08333 z m 0,0"
     style="fill:#d9cfc7;fill-opacity:1;fill-rule:nonzero;stroke:#b8a89c;stroke-width:0.34321019;stroke-linecap:butt;stroke-linejoin:miter;stroke-miterlimit:4;stroke-opacity:1"
     inkscape:connector-curvature="0" />
  <path
     id="path5153"
     d="m 474.6174,366.48381 8.99119,-3.71274 -0.87953,-2.13792 5.79888,-2.39175 3.10674,7.52739 8.50337,-3.50539 0.43107,1.03499 0.58071,-0.23774 0.75461,-0.31461 1.03466,2.50257 -0.72577,0.29495 -0.55738,0.23238 0.68643,1.65885 -9.21497,3.79319 0.54319,1.321 -5.59112,2.30058 -2.9301,-7.0948 -8.55326,3.52684 -0.75461,-1.82151 z m 0,0"
     style="fill:#d9cfc7;fill-opacity:1;fill-rule:nonzero;stroke:#b8a89c;stroke-width:0.34321019;stroke-linecap:butt;stroke-linejoin:miter;stroke-miterlimit:4;stroke-opacity:1"
     inkscape:connector-curvature="0" />
  <path
     id="path5155"
     d="m 639.45119,468.64962 2.66881,-1.03141 -0.47731,-1.22805 1.73757,-0.65961 -1.82544,-4.73698 12.98481,-4.99445 1.73252,4.50283 4.67773,-1.80364 2.14895,5.57717 -22.06019,8.4891 -0.64202,-1.66599 z m 0,0"
     style="fill:#d9cfc7;fill-opacity:1;fill-rule:nonzero;stroke:#b8a89c;stroke-width:0.34321019;stroke-linecap:butt;stroke-linejoin:miter;stroke-miterlimit:4;stroke-opacity:1"
     inkscape:connector-curvature="0" />
  <path
     id="path5157"
     d="m 367.91107,381.02377 9.35591,-26.90446 6.2121,2.16294 -9.35454,26.90268 z m 0,0"
     style="fill:#d9cfc7;fill-opacity:1;fill-rule:nonzero;stroke:#b8a89c;stroke-width:0.34321019;stroke-linecap:butt;stroke-linejoin:miter;stroke-miterlimit:4;stroke-opacity:1"
     inkscape:connector-curvature="0" />
  <path
     id="path5161"
     d="m 456.48629,372.47033 15.95744,-6.58713 0.52534,1.27452 1.64833,-0.67391 1.22411,2.97628 -1.10971,0.45582 0.56287,1.35855 -5.46071,2.25767 3.4106,8.26386 -0.95092,0.39148 0.5592,1.36392 -4.69237,1.93594 -3.9968,-9.685 -5.38611,2.21835 -1.00629,-2.44537 -0.78664,-1.88766 z m 0,0"
     style="fill:#d9cfc7;fill-opacity:1;fill-rule:nonzero;stroke:#b8a89c;stroke-width:0.34321019;stroke-linecap:butt;stroke-linejoin:miter;stroke-miterlimit:4;stroke-opacity:1"
     inkscape:connector-curvature="0" />
  <path
     id="path5165"
     d="m 593.06427,289.7817 7.18041,-2.96377 8.00824,19.37708 -7.18408,2.96555 z m 0,0"
     style="fill:#d9cfc7;fill-opacity:1;fill-rule:nonzero;stroke:#b8a89c;stroke-width:0.34321019;stroke-linecap:butt;stroke-linejoin:miter;stroke-miterlimit:4;stroke-opacity:1"
     inkscape:connector-curvature="0" />
  <path
     id="path5167"
     d="m 501.45186,361.64669 9.3614,-3.86826 -2.10365,-5.08738 5.29642,-2.18081 6.64592,16.113 -5.4607,2.25947 -2.13065,-5.14637 -2.48118,1.02427 -0.37753,-0.91701 -1.44972,0.60061 0.31301,0.75793 -5.25341,2.16115 -0.87267,-2.11468 -1.03466,-2.50257 z m 0,0"
     style="fill:#d9cfc7;fill-opacity:1;fill-rule:nonzero;stroke:#b8a89c;stroke-width:0.34321019;stroke-linecap:butt;stroke-linejoin:miter;stroke-miterlimit:4;stroke-opacity:1"
     inkscape:connector-curvature="0" />
  <path
     id="path5183"
     d="m 637.42946,381.27403 9.2543,-3.79498 0.41643,1.01533 0.99898,2.43823 -0.70794,0.29851 2.64226,6.44236 0.28419,0.68285 -8.54273,3.50358 z m 0,0"
     style="fill:#d9cfc7;fill-opacity:1;fill-rule:nonzero;stroke:#b8a89c;stroke-width:0.34321019;stroke-linecap:butt;stroke-linejoin:miter;stroke-miterlimit:4;stroke-opacity:1"
     inkscape:connector-curvature="0" />
  <path
     id="path5187"
     d="m 505.68845,391.90105 16.53312,-6.86242 2.12881,5.13745 -16.52762,6.86242 z m 0,0"
     style="fill:#d9cfc7;fill-opacity:1;fill-rule:nonzero;stroke:#b8a89c;stroke-width:0.34321019;stroke-linecap:butt;stroke-linejoin:miter;stroke-miterlimit:4;stroke-opacity:1"
     inkscape:connector-curvature="0" />
  <path
     id="path5189"
     d="m 723.53768,422.02132 6.84634,-2.47039 4.29882,11.90331 -6.84451,2.47752 z m 0,0"
     style="fill:#d9cfc7;fill-opacity:1;fill-rule:nonzero;stroke:#b8a89c;stroke-width:0.34321019;stroke-linecap:butt;stroke-linejoin:miter;stroke-miterlimit:4;stroke-opacity:1"
     inkscape:connector-curvature="0" />
  <path
     id="path5191"
     d="m 413.94425,395.30098 2.30225,-5.45205 11.45819,4.84068 -2.413,5.71303 -6.70541,-2.83683 -1.24563,2.96016 -2.99782,-1.26736 1.35682,-3.21043 z m 0,0"
     style="fill:#d9cfc7;fill-opacity:1;fill-rule:nonzero;stroke:#b8a89c;stroke-width:0.34321019;stroke-linecap:butt;stroke-linejoin:miter;stroke-miterlimit:4;stroke-opacity:1"
     inkscape:connector-curvature="0" />
  <path
     id="path5193"
     d="m 496.13759,427.16233 5.36461,-2.11468 5.92563,15.01366 1.31381,3.33733 -5.22869,2.05748 -1.21359,-3.08171 -0.74728,-1.87873 2.7832,-1.0904 -3.25317,-8.24597 -2.91226,1.14939 z m 0,0"
     style="fill:#d9cfc7;fill-opacity:1;fill-rule:nonzero;stroke:#b8a89c;stroke-width:0.34321019;stroke-linecap:butt;stroke-linejoin:miter;stroke-miterlimit:4;stroke-opacity:1"
     inkscape:connector-curvature="0" />
  <path
     id="path5195"
     d="m 503.75777,384.81161 15.74832,-6.86243 1.93616,4.4385 -15.7538,6.86242 z m 0,0"
     style="fill:#d9cfc7;fill-opacity:1;fill-rule:nonzero;stroke:#b8a89c;stroke-width:0.34321019;stroke-linecap:butt;stroke-linejoin:miter;stroke-miterlimit:4;stroke-opacity:1"
     inkscape:connector-curvature="0" />
  <path
     id="path5197"
     d="m 331.64336,360.98888 2.80105,-8.9199 2.726,0.85446 -0.26267,0.83657 4.6457,1.45864 -0.55921,1.78756 1.5266,0.48621 -1.08866,3.47143 -3.90573,-1.22805 -1.81444,5.76665 -3.57716,-1.11544 0.92804,-2.94946 z m 0,0"
     style="fill:#d9cfc7;fill-opacity:1;fill-rule:nonzero;stroke:#b8a89c;stroke-width:0.34321019;stroke-linecap:butt;stroke-linejoin:miter;stroke-miterlimit:4;stroke-opacity:1"
     inkscape:connector-curvature="0" />
  <path
     id="path5201"
     d="m 425.29169,400.40264 2.413,-5.71303 12.37707,5.2286 -0.80448,1.9002 -1.05114,-0.44512 -0.61824,1.46043 -2.13248,-0.89377 -0.99073,2.34884 z m 0,0"
     style="fill:#d9cfc7;fill-opacity:1;fill-rule:nonzero;stroke:#b8a89c;stroke-width:0.34321019;stroke-linecap:butt;stroke-linejoin:miter;stroke-miterlimit:4;stroke-opacity:1"
     inkscape:connector-curvature="0" />
  <path
     id="path5203"
     d="m 501.56306,315.49565 6.85139,-2.91907 2.9333,6.87671 -2.31095,0.98316 0.96145,2.25231 -4.54227,1.93592 z m 0,0"
     style="fill:#d9cfc7;fill-opacity:1;fill-rule:nonzero;stroke:#b8a89c;stroke-width:0.34321019;stroke-linecap:butt;stroke-linejoin:miter;stroke-miterlimit:4;stroke-opacity:1"
     inkscape:connector-curvature="0" />
  <path
     id="path5205"
     d="m 629.9612,469.55414 8.5711,-3.29624 0.91889,2.39172 0.94543,2.44897 -1.02414,0.39149 0.8475,2.20761 -7.55245,2.90118 z m 0,0"
     style="fill:#d9cfc7;fill-opacity:1;fill-rule:nonzero;stroke:#b8a89c;stroke-width:0.34321019;stroke-linecap:butt;stroke-linejoin:miter;stroke-miterlimit:4;stroke-opacity:1"
     inkscape:connector-curvature="0" />
  <path
     id="path5207"
     d="m 540.93705,515.37449 5.44148,-1.78755 2.46699,7.497 -1.48038,0.48082 1.85746,5.65585 -2.20936,0.72577 -1.74122,-5.29294 -1.74808,0.57736 z m 0,0"
     style="fill:#d9cfc7;fill-opacity:1;fill-rule:nonzero;stroke:#b8a89c;stroke-width:0.34321019;stroke-linecap:butt;stroke-linejoin:miter;stroke-miterlimit:4;stroke-opacity:1"
     inkscape:connector-curvature="0" />
  <path
     id="path5209"
     d="m 405.68203,487.44038 1.89498,-6.5317 8.15101,2.36673 -1.89818,6.5317 z m 0,0"
     style="fill:#d9cfc7;fill-opacity:1;fill-rule:nonzero;stroke:#b8a89c;stroke-width:0.34321019;stroke-linecap:butt;stroke-linejoin:miter;stroke-miterlimit:4;stroke-opacity:1"
     inkscape:connector-curvature="0" />
  <path
     id="path5213"
     d="m 641.1709,401.527 9.67029,-3.51072 1.88263,5.19103 -9.67077,3.50541 z m 0,0"
     style="fill:#d9cfc7;fill-opacity:1;fill-rule:nonzero;stroke:#b8a89c;stroke-width:0.34321019;stroke-linecap:butt;stroke-linejoin:miter;stroke-miterlimit:4;stroke-opacity:1"
     inkscape:connector-curvature="0" />
  <path
     id="path5215"
     d="m 496.03234,330.50931 10.38554,-4.43849 1.7339,4.05774 -10.38371,4.43849 z m 0,0"
     style="fill:#d9cfc7;fill-opacity:1;fill-rule:nonzero;stroke:#b8a89c;stroke-width:0.34321019;stroke-linecap:butt;stroke-linejoin:miter;stroke-miterlimit:4;stroke-opacity:1"
     inkscape:connector-curvature="0" />
  <path
     id="path5217"
     d="m 631.00866,249.40088 5.6378,-2.41678 2.49539,5.83458 -5.63597,2.40962 z m 0,0"
     style="fill:#d9cfc7;fill-opacity:1;fill-rule:nonzero;stroke:#b8a89c;stroke-width:0.34321019;stroke-linecap:butt;stroke-linejoin:miter;stroke-miterlimit:4;stroke-opacity:1"
     inkscape:connector-curvature="0" />
  <path
     id="path5219"
     d="m 531.01278,373.71268 4.41368,-1.71784 1.78378,4.59758 -4.41688,1.71605 z m 0,0"
     style="fill:#d9cfc7;fill-opacity:1;fill-rule:nonzero;stroke:#b8a89c;stroke-width:0.34321019;stroke-linecap:butt;stroke-linejoin:miter;stroke-miterlimit:4;stroke-opacity:1"
     inkscape:connector-curvature="0" />
  <path
     id="path5221"
     d="m 419.48183,377.82762 6.86237,-2.41319 0.88319,2.49542 -6.86603,2.42035 z m 0,0"
     style="fill:#d9cfc7;fill-opacity:1;fill-rule:nonzero;stroke:#b8a89c;stroke-width:0.34321019;stroke-linecap:butt;stroke-linejoin:miter;stroke-miterlimit:4;stroke-opacity:1"
     inkscape:connector-curvature="0" />
  <path
     id="path5223"
     d="m 427.82641,373.62151 1.48724,-0.54878 1.40305,3.82 -1.48908,0.55057 z m 0,0"
     style="fill:#d9cfc7;fill-opacity:1;fill-rule:nonzero;stroke:#b8a89c;stroke-width:0.34321019;stroke-linecap:butt;stroke-linejoin:miter;stroke-miterlimit:4;stroke-opacity:1"
     inkscape:connector-curvature="0" />
</svg>
